<?xml version="1.0" encoding="UTF-8" standalone="no"?>
<!DOCTYPE svg PUBLIC "-//W3C//DTD SVG 1.1//EN"
 "http://www.w3.org/Graphics/SVG/1.1/DTD/svg11.dtd">
<!-- Generated by graphviz version 2.47.0 (20210316.0004)
 -->
<!-- Title: dependencies Pages: 1 -->
<svg width="1658pt" height="284pt"
 viewBox="0.00 0.00 1658.00 284.00" xmlns="http://www.w3.org/2000/svg" xmlns:xlink="http://www.w3.org/1999/xlink">
<g id="graph0" class="graph" transform="scale(1 1) rotate(0) translate(4 280)">
<title>dependencies</title>
<polygon fill="white" stroke="transparent" points="-4,4 -4,-280 1654,-280 1654,4 -4,4"/>
<text text-anchor="start" x="804.01" y="-42.4" font-family="sans-serif" font-weight="bold" font-size="14.00">Legend</text>
<polygon fill="#ffffb3" stroke="transparent" points="591,-10 591,-30 611,-30 611,-10 591,-10"/>
<text text-anchor="start" x="614.63" y="-15.4" font-family="sans-serif" font-size="14.00"> &#160;Declarations</text>
<polygon fill="#8dd3c7" stroke="transparent" points="704,-10 704,-30 724,-30 724,-10 704,-10"/>
<text text-anchor="start" x="727.73" y="-15.4" font-family="sans-serif" font-size="14.00"> &#160;Module</text>
<polygon fill="#80b1d3" stroke="transparent" points="790,-10 790,-30 810,-30 810,-10 790,-10"/>
<text text-anchor="start" x="813.78" y="-15.4" font-family="sans-serif" font-size="14.00"> &#160;Bootstrap</text>
<polygon fill="#fdb462" stroke="transparent" points="887,-10 887,-30 907,-30 907,-10 887,-10"/>
<text text-anchor="start" x="910.67" y="-15.4" font-family="sans-serif" font-size="14.00"> &#160;Providers</text>
<polygon fill="#fb8072" stroke="transparent" points="983,-10 983,-30 1003,-30 1003,-10 983,-10"/>
<text text-anchor="start" x="1006.73" y="-15.4" font-family="sans-serif" font-size="14.00"> &#160;Exports</text>
<g id="clust1" class="cluster">
<title>cluster_AppModule</title>
<polygon fill="none" stroke="black" stroke-dasharray="1,5" points="8,-70 8,-268 1642,-268 1642,-70 8,-70"/>
</g>
<g id="clust15" class="cluster">
<title>cluster_AppModule_bootstrap</title>
<polygon fill="none" stroke="black" points="775,-208 775,-260 899,-260 899,-208 775,-208"/>
</g>
<g id="clust13" class="cluster">
<title>cluster_AppModule_imports</title>
<polygon fill="none" stroke="black" points="1490,-78 1490,-130 1634,-130 1634,-78 1490,-78"/>
</g>
<g id="clust2" class="cluster">
<title>cluster_AppModule_declarations</title>
<polygon fill="none" stroke="black" points="16,-78 16,-130 1482,-130 1482,-78 16,-78"/>
</g>
<!-- AppComponent -->
<g id="node1" class="node">
<title>AppComponent</title>
<polygon fill="#ffffb3" stroke="black" points="1473.94,-122 1368.06,-122 1368.06,-86 1473.94,-86 1473.94,-122"/>
<text text-anchor="middle" x="1421" y="-99.8" font-family="Times,serif" font-size="14.00">AppComponent</text>
</g>
<!-- AppModule -->
<g id="node11" class="node">
<title>AppModule</title>
<polygon fill="#8dd3c7" stroke="black" points="878.66,-187 875.66,-191 854.66,-191 851.66,-187 795.34,-187 795.34,-151 878.66,-151 878.66,-187"/>
<text text-anchor="middle" x="837" y="-164.8" font-family="Times,serif" font-size="14.00">AppModule</text>
</g>
<!-- AppComponent&#45;&gt;AppModule -->
<g id="edge1" class="edge">
<title>AppComponent&#45;&gt;AppModule</title>
<path fill="none" stroke="black" d="M1421,-122.28C1421,-143.32 1421,-175 1421,-175 1421,-175 889,-175 889,-175"/>
<polygon fill="black" stroke="black" points="889,-171.5 879,-175 889,-178.5 889,-171.5"/>
</g>
<!-- CustomersComponent -->
<g id="node2" class="node">
<title>CustomersComponent</title>
<polygon fill="#ffffb3" stroke="black" points="1350.71,-122 1209.29,-122 1209.29,-86 1350.71,-86 1350.71,-122"/>
<text text-anchor="middle" x="1280" y="-99.8" font-family="Times,serif" font-size="14.00">CustomersComponent</text>
</g>
<!-- CustomersComponent&#45;&gt;AppModule -->
<g id="edge2" class="edge">
<title>CustomersComponent&#45;&gt;AppModule</title>
<path fill="none" stroke="black" d="M1280,-122.11C1280,-141.34 1280,-169 1280,-169 1280,-169 888.68,-169 888.68,-169"/>
<polygon fill="black" stroke="black" points="888.68,-165.5 878.68,-169 888.68,-172.5 888.68,-165.5"/>
</g>
<!-- DetailInfoComponent -->
<g id="node3" class="node">
<title>DetailInfoComponent</title>
<polygon fill="#ffffb3" stroke="black" points="1191.36,-122 1052.64,-122 1052.64,-86 1191.36,-86 1191.36,-122"/>
<text text-anchor="middle" x="1122" y="-99.8" font-family="Times,serif" font-size="14.00">DetailInfoComponent</text>
</g>
<!-- DetailInfoComponent&#45;&gt;AppModule -->
<g id="edge3" class="edge">
<title>DetailInfoComponent&#45;&gt;AppModule</title>
<path fill="none" stroke="black" d="M1122,-122.02C1122,-139.37 1122,-163 1122,-163 1122,-163 888.75,-163 888.75,-163"/>
<polygon fill="black" stroke="black" points="888.75,-159.5 878.75,-163 888.75,-166.5 888.75,-159.5"/>
</g>
<!-- FooterComponent -->
<g id="node4" class="node">
<title>FooterComponent</title>
<polygon fill="#ffffb3" stroke="black" points="1034.88,-122 917.12,-122 917.12,-86 1034.88,-86 1034.88,-122"/>
<text text-anchor="middle" x="976" y="-99.8" font-family="Times,serif" font-size="14.00">FooterComponent</text>
</g>
<!-- FooterComponent&#45;&gt;AppModule -->
<g id="edge4" class="edge">
<title>FooterComponent&#45;&gt;AppModule</title>
<path fill="none" stroke="black" d="M976,-122.24C976,-137.57 976,-157 976,-157 976,-157 888.7,-157 888.7,-157"/>
<polygon fill="black" stroke="black" points="888.7,-153.5 878.7,-157 888.7,-160.5 888.7,-153.5"/>
</g>
<!-- GalleryComponent -->
<g id="node5" class="node">
<title>GalleryComponent</title>
<polygon fill="#ffffb3" stroke="black" points="898.81,-122 775.19,-122 775.19,-86 898.81,-86 898.81,-122"/>
<text text-anchor="middle" x="837" y="-99.8" font-family="Times,serif" font-size="14.00">GalleryComponent</text>
</g>
<!-- GalleryComponent&#45;&gt;AppModule -->
<g id="edge5" class="edge">
<title>GalleryComponent&#45;&gt;AppModule</title>
<path fill="none" stroke="black" d="M837,-122.11C837,-122.11 837,-140.99 837,-140.99"/>
<polygon fill="black" stroke="black" points="833.5,-140.99 837,-150.99 840.5,-140.99 833.5,-140.99"/>
</g>
<!-- LoginComponent -->
<g id="node6" class="node">
<title>LoginComponent</title>
<polygon fill="#ffffb3" stroke="black" points="757.28,-122 642.72,-122 642.72,-86 757.28,-86 757.28,-122"/>
<text text-anchor="middle" x="700" y="-99.8" font-family="Times,serif" font-size="14.00">LoginComponent</text>
</g>
<!-- LoginComponent&#45;&gt;AppModule -->
<g id="edge6" class="edge">
<title>LoginComponent&#45;&gt;AppModule</title>
<path fill="none" stroke="black" d="M700,-122.24C700,-137.57 700,-157 700,-157 700,-157 785.15,-157 785.15,-157"/>
<polygon fill="black" stroke="black" points="785.15,-160.5 795.15,-157 785.15,-153.5 785.15,-160.5"/>
</g>
<!-- NavigationComponent -->
<g id="node7" class="node">
<title>NavigationComponent</title>
<polygon fill="#ffffb3" stroke="black" points="624.54,-122 481.46,-122 481.46,-86 624.54,-86 624.54,-122"/>
<text text-anchor="middle" x="553" y="-99.8" font-family="Times,serif" font-size="14.00">NavigationComponent</text>
</g>
<!-- NavigationComponent&#45;&gt;AppModule -->
<g id="edge7" class="edge">
<title>NavigationComponent&#45;&gt;AppModule</title>
<path fill="none" stroke="black" d="M553,-122.02C553,-139.37 553,-163 553,-163 553,-163 785.09,-163 785.09,-163"/>
<polygon fill="black" stroke="black" points="785.09,-166.5 795.09,-163 785.09,-159.5 785.09,-166.5"/>
</g>
<!-- PageNotFoundComponent -->
<g id="node8" class="node">
<title>PageNotFoundComponent</title>
<polygon fill="#ffffb3" stroke="black" points="463.82,-122 298.18,-122 298.18,-86 463.82,-86 463.82,-122"/>
<text text-anchor="middle" x="381" y="-99.8" font-family="Times,serif" font-size="14.00">PageNotFoundComponent</text>
</g>
<!-- PageNotFoundComponent&#45;&gt;AppModule -->
<g id="edge8" class="edge">
<title>PageNotFoundComponent&#45;&gt;AppModule</title>
<path fill="none" stroke="black" d="M381,-122.11C381,-141.34 381,-169 381,-169 381,-169 785.32,-169 785.32,-169"/>
<polygon fill="black" stroke="black" points="785.32,-172.5 795.32,-169 785.32,-165.5 785.32,-172.5"/>
</g>
<!-- SignUpComponent -->
<g id="node9" class="node">
<title>SignUpComponent</title>
<polygon fill="#ffffb3" stroke="black" points="280.11,-122 155.89,-122 155.89,-86 280.11,-86 280.11,-122"/>
<text text-anchor="middle" x="218" y="-99.8" font-family="Times,serif" font-size="14.00">SignUpComponent</text>
</g>
<!-- SignUpComponent&#45;&gt;AppModule -->
<g id="edge9" class="edge">
<title>SignUpComponent&#45;&gt;AppModule</title>
<path fill="none" stroke="black" d="M218,-122.28C218,-143.32 218,-175 218,-175 218,-175 784.94,-175 784.94,-175"/>
<polygon fill="black" stroke="black" points="784.94,-178.5 794.94,-175 784.94,-171.5 784.94,-178.5"/>
</g>
<!-- TableComponent -->
<g id="node10" class="node">
<title>TableComponent</title>
<polygon fill="#ffffb3" stroke="black" points="137.7,-122 24.3,-122 24.3,-86 137.7,-86 137.7,-122"/>
<text text-anchor="middle" x="81" y="-99.8" font-family="Times,serif" font-size="14.00">TableComponent</text>
</g>
<!-- TableComponent&#45;&gt;AppModule -->
<g id="edge10" class="edge">
<title>TableComponent&#45;&gt;AppModule</title>
<path fill="none" stroke="black" d="M81,-122.25C81,-145.02 81,-181 81,-181 81,-181 785.28,-181 785.28,-181"/>
<polygon fill="black" stroke="black" points="785.28,-184.5 795.28,-181 785.28,-177.5 785.28,-184.5"/>
</g>
<!-- AppComponent  -->
<g id="node13" class="node">
<title>AppComponent </title>
<polygon fill="#80b1d3" stroke="black" points="891.44,-252 782.56,-252 782.56,-216 891.44,-216 891.44,-252"/>
<text text-anchor="middle" x="837" y="-229.8" font-family="Times,serif" font-size="14.00">AppComponent </text>
</g>
<!-- AppModule&#45;&gt;AppComponent  -->
<g id="edge12" class="edge">
<title>AppModule&#45;&gt;AppComponent </title>
<path fill="none" stroke="black" stroke-dasharray="1,5" d="M837,-187.11C837,-187.11 837,-205.99 837,-205.99"/>
<polygon fill="black" stroke="black" points="833.5,-205.99 837,-215.99 840.5,-205.99 833.5,-205.99"/>
</g>
<!-- AppRoutingModule -->
<g id="node12" class="node">
<title>AppRoutingModule</title>
<polygon fill="#8dd3c7" stroke="black" points="1626.27,-122 1623.27,-126 1602.27,-126 1599.27,-122 1497.73,-122 1497.73,-86 1626.27,-86 1626.27,-122"/>
<text text-anchor="middle" x="1562" y="-99.8" font-family="Times,serif" font-size="14.00">AppRoutingModule</text>
</g>
<!-- AppRoutingModule&#45;&gt;AppModule -->
<g id="edge11" class="edge">
<title>AppRoutingModule&#45;&gt;AppModule</title>
<path fill="none" stroke="black" d="M1562,-122.25C1562,-145.02 1562,-181 1562,-181 1562,-181 888.85,-181 888.85,-181"/>
<polygon fill="black" stroke="black" points="888.85,-177.5 878.85,-181 888.85,-184.5 888.85,-177.5"/>
</g>
</g>
</svg>
