<?xml version="1.0" encoding="UTF-8" standalone="no"?>
<!DOCTYPE svg PUBLIC "-//W3C//DTD SVG 1.1//EN"
 "http://www.w3.org/Graphics/SVG/1.1/DTD/svg11.dtd">
<!-- Generated by graphviz version 2.47.0 (20210316.0004)
 -->
<!-- Title: dependencies Pages: 1 -->
<svg width="1475pt" height="284pt"
 viewBox="0.00 0.00 1475.00 284.00" xmlns="http://www.w3.org/2000/svg" xmlns:xlink="http://www.w3.org/1999/xlink">
<g id="graph0" class="graph" transform="scale(1 1) rotate(0) translate(4 280)">
<title>dependencies</title>
<polygon fill="white" stroke="transparent" points="-4,4 -4,-280 1471,-280 1471,4 -4,4"/>
<text text-anchor="start" x="712.51" y="-42.4" font-family="sans-serif" font-weight="bold" font-size="14.00">Legend</text>
<polygon fill="#ffffb3" stroke="transparent" points="499.5,-10 499.5,-30 519.5,-30 519.5,-10 499.5,-10"/>
<text text-anchor="start" x="523.13" y="-15.4" font-family="sans-serif" font-size="14.00"> &#160;Declarations</text>
<polygon fill="#8dd3c7" stroke="transparent" points="612.5,-10 612.5,-30 632.5,-30 632.5,-10 612.5,-10"/>
<text text-anchor="start" x="636.23" y="-15.4" font-family="sans-serif" font-size="14.00"> &#160;Module</text>
<polygon fill="#80b1d3" stroke="transparent" points="698.5,-10 698.5,-30 718.5,-30 718.5,-10 698.5,-10"/>
<text text-anchor="start" x="722.28" y="-15.4" font-family="sans-serif" font-size="14.00"> &#160;Bootstrap</text>
<polygon fill="#fdb462" stroke="transparent" points="795.5,-10 795.5,-30 815.5,-30 815.5,-10 795.5,-10"/>
<text text-anchor="start" x="819.17" y="-15.4" font-family="sans-serif" font-size="14.00"> &#160;Providers</text>
<polygon fill="#fb8072" stroke="transparent" points="891.5,-10 891.5,-30 911.5,-30 911.5,-10 891.5,-10"/>
<text text-anchor="start" x="915.23" y="-15.4" font-family="sans-serif" font-size="14.00"> &#160;Exports</text>
<g id="clust1" class="cluster">
<title>cluster_AppModule</title>
<polygon fill="none" stroke="black" stroke-dasharray="1,5" points="8,-70 8,-268 1459,-268 1459,-70 8,-70"/>
</g>
<g id="clust12" class="cluster">
<title>cluster_AppModule_imports</title>
<polygon fill="none" stroke="black" points="1307,-78 1307,-130 1451,-130 1451,-78 1307,-78"/>
</g>
<g id="clust14" class="cluster">
<title>cluster_AppModule_bootstrap</title>
<polygon fill="none" stroke="black" points="661,-208 661,-260 785,-260 785,-208 661,-208"/>
</g>
<g id="clust2" class="cluster">
<title>cluster_AppModule_declarations</title>
<polygon fill="none" stroke="black" points="16,-78 16,-130 1299,-130 1299,-78 16,-78"/>
</g>
<!-- AppComponent -->
<g id="node1" class="node">
<title>AppComponent</title>
<polygon fill="#ffffb3" stroke="black" points="1290.94,-122 1185.06,-122 1185.06,-86 1290.94,-86 1290.94,-122"/>
<text text-anchor="middle" x="1238" y="-99.8" font-family="Times,serif" font-size="14.00">AppComponent</text>
</g>
<!-- AppModule -->
<g id="node10" class="node">
<title>AppModule</title>
<polygon fill="#8dd3c7" stroke="black" points="764.66,-187 761.66,-191 740.66,-191 737.66,-187 681.34,-187 681.34,-151 764.66,-151 764.66,-187"/>
<text text-anchor="middle" x="723" y="-164.8" font-family="Times,serif" font-size="14.00">AppModule</text>
</g>
<!-- AppComponent&#45;&gt;AppModule -->
<g id="edge1" class="edge">
<title>AppComponent&#45;&gt;AppModule</title>
<path fill="none" stroke="black" d="M1238,-122.13C1238,-142.57 1238,-173 1238,-173 1238,-173 774.71,-173 774.71,-173"/>
<polygon fill="black" stroke="black" points="774.71,-169.5 764.71,-173 774.71,-176.5 774.71,-169.5"/>
</g>
<!-- CustomersComponent -->
<g id="node2" class="node">
<title>CustomersComponent</title>
<polygon fill="#ffffb3" stroke="black" points="1167.71,-122 1026.29,-122 1026.29,-86 1167.71,-86 1167.71,-122"/>
<text text-anchor="middle" x="1097" y="-99.8" font-family="Times,serif" font-size="14.00">CustomersComponent</text>
</g>
<!-- CustomersComponent&#45;&gt;AppModule -->
<g id="edge2" class="edge">
<title>CustomersComponent&#45;&gt;AppModule</title>
<path fill="none" stroke="black" d="M1097,-122.27C1097,-140.56 1097,-166 1097,-166 1097,-166 774.81,-166 774.81,-166"/>
<polygon fill="black" stroke="black" points="774.81,-162.5 764.81,-166 774.81,-169.5 774.81,-162.5"/>
</g>
<!-- DetailInfoComponent -->
<g id="node3" class="node">
<title>DetailInfoComponent</title>
<polygon fill="#ffffb3" stroke="black" points="1008.36,-122 869.64,-122 869.64,-86 1008.36,-86 1008.36,-122"/>
<text text-anchor="middle" x="939" y="-99.8" font-family="Times,serif" font-size="14.00">DetailInfoComponent</text>
</g>
<!-- DetailInfoComponent&#45;&gt;AppModule -->
<g id="edge3" class="edge">
<title>DetailInfoComponent&#45;&gt;AppModule</title>
<path fill="none" stroke="black" d="M939,-122.01C939,-138.05 939,-159 939,-159 939,-159 774.9,-159 774.9,-159"/>
<polygon fill="black" stroke="black" points="774.9,-155.5 764.9,-159 774.9,-162.5 774.9,-155.5"/>
</g>
<!-- FooterComponent -->
<g id="node4" class="node">
<title>FooterComponent</title>
<polygon fill="#ffffb3" stroke="black" points="851.88,-122 734.12,-122 734.12,-86 851.88,-86 851.88,-122"/>
<text text-anchor="middle" x="793" y="-99.8" font-family="Times,serif" font-size="14.00">FooterComponent</text>
</g>
<!-- FooterComponent&#45;&gt;AppModule -->
<g id="edge4" class="edge">
<title>FooterComponent&#45;&gt;AppModule</title>
<path fill="none" stroke="black" d="M749.44,-122.11C749.44,-122.11 749.44,-140.99 749.44,-140.99"/>
<polygon fill="black" stroke="black" points="745.94,-140.99 749.44,-150.99 752.94,-140.99 745.94,-140.99"/>
</g>
<!-- GalleryComponent -->
<g id="node5" class="node">
<title>GalleryComponent</title>
<polygon fill="#ffffb3" stroke="black" points="715.81,-122 592.19,-122 592.19,-86 715.81,-86 715.81,-122"/>
<text text-anchor="middle" x="654" y="-99.8" font-family="Times,serif" font-size="14.00">GalleryComponent</text>
</g>
<!-- GalleryComponent&#45;&gt;AppModule -->
<g id="edge5" class="edge">
<title>GalleryComponent&#45;&gt;AppModule</title>
<path fill="none" stroke="black" d="M698.41,-122.11C698.41,-122.11 698.41,-140.99 698.41,-140.99"/>
<polygon fill="black" stroke="black" points="694.91,-140.99 698.41,-150.99 701.91,-140.99 694.91,-140.99"/>
</g>
<!-- LoginComponent -->
<g id="node6" class="node">
<title>LoginComponent</title>
<polygon fill="#ffffb3" stroke="black" points="574.28,-122 459.72,-122 459.72,-86 574.28,-86 574.28,-122"/>
<text text-anchor="middle" x="517" y="-99.8" font-family="Times,serif" font-size="14.00">LoginComponent</text>
</g>
<!-- LoginComponent&#45;&gt;AppModule -->
<g id="edge6" class="edge">
<title>LoginComponent&#45;&gt;AppModule</title>
<path fill="none" stroke="black" d="M517,-122.01C517,-138.05 517,-159 517,-159 517,-159 671.31,-159 671.31,-159"/>
<polygon fill="black" stroke="black" points="671.31,-162.5 681.31,-159 671.31,-155.5 671.31,-162.5"/>
</g>
<!-- NavigationComponent -->
<g id="node7" class="node">
<title>NavigationComponent</title>
<polygon fill="#ffffb3" stroke="black" points="441.54,-122 298.46,-122 298.46,-86 441.54,-86 441.54,-122"/>
<text text-anchor="middle" x="370" y="-99.8" font-family="Times,serif" font-size="14.00">NavigationComponent</text>
</g>
<!-- NavigationComponent&#45;&gt;AppModule -->
<g id="edge7" class="edge">
<title>NavigationComponent&#45;&gt;AppModule</title>
<path fill="none" stroke="black" d="M370,-122.27C370,-140.56 370,-166 370,-166 370,-166 671.12,-166 671.12,-166"/>
<polygon fill="black" stroke="black" points="671.12,-169.5 681.12,-166 671.12,-162.5 671.12,-169.5"/>
</g>
<!-- SignUpComponent -->
<g id="node8" class="node">
<title>SignUpComponent</title>
<polygon fill="#ffffb3" stroke="black" points="280.11,-122 155.89,-122 155.89,-86 280.11,-86 280.11,-122"/>
<text text-anchor="middle" x="218" y="-99.8" font-family="Times,serif" font-size="14.00">SignUpComponent</text>
</g>
<!-- SignUpComponent&#45;&gt;AppModule -->
<g id="edge8" class="edge">
<title>SignUpComponent&#45;&gt;AppModule</title>
<path fill="none" stroke="black" d="M218,-122.13C218,-142.57 218,-173 218,-173 218,-173 671.24,-173 671.24,-173"/>
<polygon fill="black" stroke="black" points="671.24,-176.5 681.24,-173 671.24,-169.5 671.24,-176.5"/>
</g>
<!-- TableComponent -->
<g id="node9" class="node">
<title>TableComponent</title>
<polygon fill="#ffffb3" stroke="black" points="137.7,-122 24.3,-122 24.3,-86 137.7,-86 137.7,-122"/>
<text text-anchor="middle" x="81" y="-99.8" font-family="Times,serif" font-size="14.00">TableComponent</text>
</g>
<!-- TableComponent&#45;&gt;AppModule -->
<g id="edge9" class="edge">
<title>TableComponent&#45;&gt;AppModule</title>
<path fill="none" stroke="black" d="M81,-122.01C81,-144.49 81,-180 81,-180 81,-180 670.88,-180 670.88,-180"/>
<polygon fill="black" stroke="black" points="670.88,-183.5 680.88,-180 670.88,-176.5 670.88,-183.5"/>
</g>
<!-- AppComponent  -->
<g id="node12" class="node">
<title>AppComponent </title>
<polygon fill="#80b1d3" stroke="black" points="777.44,-252 668.56,-252 668.56,-216 777.44,-216 777.44,-252"/>
<text text-anchor="middle" x="723" y="-229.8" font-family="Times,serif" font-size="14.00">AppComponent </text>
</g>
<!-- AppModule&#45;&gt;AppComponent  -->
<g id="edge11" class="edge">
<title>AppModule&#45;&gt;AppComponent </title>
<path fill="none" stroke="black" stroke-dasharray="1,5" d="M723,-187.11C723,-187.11 723,-205.99 723,-205.99"/>
<polygon fill="black" stroke="black" points="719.5,-205.99 723,-215.99 726.5,-205.99 719.5,-205.99"/>
</g>
<!-- AppRoutingModule -->
<g id="node11" class="node">
<title>AppRoutingModule</title>
<polygon fill="#8dd3c7" stroke="black" points="1443.27,-122 1440.27,-126 1419.27,-126 1416.27,-122 1314.73,-122 1314.73,-86 1443.27,-86 1443.27,-122"/>
<text text-anchor="middle" x="1379" y="-99.8" font-family="Times,serif" font-size="14.00">AppRoutingModule</text>
</g>
<!-- AppRoutingModule&#45;&gt;AppModule -->
<g id="edge10" class="edge">
<title>AppRoutingModule&#45;&gt;AppModule</title>
<path fill="none" stroke="black" d="M1379,-122.01C1379,-144.49 1379,-180 1379,-180 1379,-180 774.78,-180 774.78,-180"/>
<polygon fill="black" stroke="black" points="774.78,-176.5 764.78,-180 774.78,-183.5 774.78,-176.5"/>
</g>
</g>
</svg>
