<?xml version="1.0" encoding="UTF-8" standalone="no"?>
<!DOCTYPE svg PUBLIC "-//W3C//DTD SVG 1.1//EN"
 "http://www.w3.org/Graphics/SVG/1.1/DTD/svg11.dtd">
<!-- Generated by graphviz version 2.47.0 (20210316.0004)
 -->
<!-- Title: dependencies Pages: 1 -->
<svg width="1475pt" height="284pt"
 viewBox="0.00 0.00 1475.00 284.00" xmlns="http://www.w3.org/2000/svg" xmlns:xlink="http://www.w3.org/1999/xlink">
<g id="graph0" class="graph" transform="scale(1 1) rotate(0) translate(4 280)">
<title>dependencies</title>
<polygon fill="white" stroke="transparent" points="-4,4 -4,-280 1471,-280 1471,4 -4,4"/>
<text text-anchor="start" x="712.51" y="-42.4" font-family="sans-serif" font-weight="bold" font-size="14.00">Legend</text>
<polygon fill="#ffffb3" stroke="transparent" points="499.5,-10 499.5,-30 519.5,-30 519.5,-10 499.5,-10"/>
<text text-anchor="start" x="523.13" y="-15.4" font-family="sans-serif" font-size="14.00"> &#160;Declarations</text>
<polygon fill="#8dd3c7" stroke="transparent" points="612.5,-10 612.5,-30 632.5,-30 632.5,-10 612.5,-10"/>
<text text-anchor="start" x="636.23" y="-15.4" font-family="sans-serif" font-size="14.00"> &#160;Module</text>
<polygon fill="#80b1d3" stroke="transparent" points="698.5,-10 698.5,-30 718.5,-30 718.5,-10 698.5,-10"/>
<text text-anchor="start" x="722.28" y="-15.4" font-family="sans-serif" font-size="14.00"> &#160;Bootstrap</text>
<polygon fill="#fdb462" stroke="transparent" points="795.5,-10 795.5,-30 815.5,-30 815.5,-10 795.5,-10"/>
<text text-anchor="start" x="819.17" y="-15.4" font-family="sans-serif" font-size="14.00"> &#160;Providers</text>
<polygon fill="#fb8072" stroke="transparent" points="891.5,-10 891.5,-30 911.5,-30 911.5,-10 891.5,-10"/>
<text text-anchor="start" x="915.23" y="-15.4" font-family="sans-serif" font-size="14.00"> &#160;Exports</text>
<g id="clust1" class="cluster">
<title>cluster_AppModule</title>
<polygon fill="none" stroke="black" stroke-dasharray="1,5" points="8,-70 8,-268 1459,-268 1459,-70 8,-70"/>
</g>
<g id="clust2" class="cluster">
<title>cluster_AppModule_declarations</title>
<polygon fill="none" stroke="black" points="168,-78 168,-130 1451,-130 1451,-78 168,-78"/>
</g>
<g id="clust12" class="cluster">
<title>cluster_AppModule_imports</title>
<polygon fill="none" stroke="black" points="16,-78 16,-130 160,-130 160,-78 16,-78"/>
</g>
<g id="clust14" class="cluster">
<title>cluster_AppModule_bootstrap</title>
<polygon fill="none" stroke="black" points="675,-208 675,-260 799,-260 799,-208 675,-208"/>
</g>
<!-- AppComponent -->
<g id="node1" class="node">
<title>AppComponent</title>
<polygon fill="#ffffb3" stroke="black" points="1442.94,-122 1337.06,-122 1337.06,-86 1442.94,-86 1442.94,-122"/>
<text text-anchor="middle" x="1390" y="-99.8" font-family="Times,serif" font-size="14.00">AppComponent</text>
</g>
<!-- AppModule -->
<g id="node10" class="node">
<title>AppModule</title>
<polygon fill="#8dd3c7" stroke="black" points="778.66,-187 775.66,-191 754.66,-191 751.66,-187 695.34,-187 695.34,-151 778.66,-151 778.66,-187"/>
<text text-anchor="middle" x="737" y="-164.8" font-family="Times,serif" font-size="14.00">AppModule</text>
</g>
<!-- AppComponent&#45;&gt;AppModule -->
<g id="edge1" class="edge">
<title>AppComponent&#45;&gt;AppModule</title>
<path fill="none" stroke="black" d="M1390,-122.01C1390,-144.49 1390,-180 1390,-180 1390,-180 788.84,-180 788.84,-180"/>
<polygon fill="black" stroke="black" points="788.84,-176.5 778.84,-180 788.84,-183.5 788.84,-176.5"/>
</g>
<!-- CustomersComponent -->
<g id="node2" class="node">
<title>CustomersComponent</title>
<polygon fill="#ffffb3" stroke="black" points="1319.71,-122 1178.29,-122 1178.29,-86 1319.71,-86 1319.71,-122"/>
<text text-anchor="middle" x="1249" y="-99.8" font-family="Times,serif" font-size="14.00">CustomersComponent</text>
</g>
<!-- CustomersComponent&#45;&gt;AppModule -->
<g id="edge2" class="edge">
<title>CustomersComponent&#45;&gt;AppModule</title>
<path fill="none" stroke="black" d="M1249,-122.13C1249,-142.57 1249,-173 1249,-173 1249,-173 788.9,-173 788.9,-173"/>
<polygon fill="black" stroke="black" points="788.9,-169.5 778.9,-173 788.9,-176.5 788.9,-169.5"/>
</g>
<!-- DetailInfoComponent -->
<g id="node3" class="node">
<title>DetailInfoComponent</title>
<polygon fill="#ffffb3" stroke="black" points="1160.36,-122 1021.64,-122 1021.64,-86 1160.36,-86 1160.36,-122"/>
<text text-anchor="middle" x="1091" y="-99.8" font-family="Times,serif" font-size="14.00">DetailInfoComponent</text>
</g>
<!-- DetailInfoComponent&#45;&gt;AppModule -->
<g id="edge3" class="edge">
<title>DetailInfoComponent&#45;&gt;AppModule</title>
<path fill="none" stroke="black" d="M1091,-122.27C1091,-140.56 1091,-166 1091,-166 1091,-166 789,-166 789,-166"/>
<polygon fill="black" stroke="black" points="789,-162.5 779,-166 789,-169.5 789,-162.5"/>
</g>
<!-- FooterComponent -->
<g id="node4" class="node">
<title>FooterComponent</title>
<polygon fill="#ffffb3" stroke="black" points="1003.88,-122 886.12,-122 886.12,-86 1003.88,-86 1003.88,-122"/>
<text text-anchor="middle" x="945" y="-99.8" font-family="Times,serif" font-size="14.00">FooterComponent</text>
</g>
<!-- FooterComponent&#45;&gt;AppModule -->
<g id="edge4" class="edge">
<title>FooterComponent&#45;&gt;AppModule</title>
<path fill="none" stroke="black" d="M945,-122.01C945,-138.05 945,-159 945,-159 945,-159 789.09,-159 789.09,-159"/>
<polygon fill="black" stroke="black" points="789.09,-155.5 779.09,-159 789.09,-162.5 789.09,-155.5"/>
</g>
<!-- GalleryComponent -->
<g id="node5" class="node">
<title>GalleryComponent</title>
<polygon fill="#ffffb3" stroke="black" points="867.81,-122 744.19,-122 744.19,-86 867.81,-86 867.81,-122"/>
<text text-anchor="middle" x="806" y="-99.8" font-family="Times,serif" font-size="14.00">GalleryComponent</text>
</g>
<!-- GalleryComponent&#45;&gt;AppModule -->
<g id="edge5" class="edge">
<title>GalleryComponent&#45;&gt;AppModule</title>
<path fill="none" stroke="black" d="M761.59,-122.11C761.59,-122.11 761.59,-140.99 761.59,-140.99"/>
<polygon fill="black" stroke="black" points="758.09,-140.99 761.59,-150.99 765.09,-140.99 758.09,-140.99"/>
</g>
<!-- LoginComponent -->
<g id="node6" class="node">
<title>LoginComponent</title>
<polygon fill="#ffffb3" stroke="black" points="726.28,-122 611.72,-122 611.72,-86 726.28,-86 726.28,-122"/>
<text text-anchor="middle" x="669" y="-99.8" font-family="Times,serif" font-size="14.00">LoginComponent</text>
</g>
<!-- LoginComponent&#45;&gt;AppModule -->
<g id="edge6" class="edge">
<title>LoginComponent&#45;&gt;AppModule</title>
<path fill="none" stroke="black" d="M710.78,-122.11C710.78,-122.11 710.78,-140.99 710.78,-140.99"/>
<polygon fill="black" stroke="black" points="707.28,-140.99 710.78,-150.99 714.28,-140.99 707.28,-140.99"/>
</g>
<!-- NavigationComponent -->
<g id="node7" class="node">
<title>NavigationComponent</title>
<polygon fill="#ffffb3" stroke="black" points="593.54,-122 450.46,-122 450.46,-86 593.54,-86 593.54,-122"/>
<text text-anchor="middle" x="522" y="-99.8" font-family="Times,serif" font-size="14.00">NavigationComponent</text>
</g>
<!-- NavigationComponent&#45;&gt;AppModule -->
<g id="edge7" class="edge">
<title>NavigationComponent&#45;&gt;AppModule</title>
<path fill="none" stroke="black" d="M522,-122.01C522,-138.05 522,-159 522,-159 522,-159 685.29,-159 685.29,-159"/>
<polygon fill="black" stroke="black" points="685.29,-162.5 695.29,-159 685.29,-155.5 685.29,-162.5"/>
</g>
<!-- SignUpComponent -->
<g id="node8" class="node">
<title>SignUpComponent</title>
<polygon fill="#ffffb3" stroke="black" points="432.11,-122 307.89,-122 307.89,-86 432.11,-86 432.11,-122"/>
<text text-anchor="middle" x="370" y="-99.8" font-family="Times,serif" font-size="14.00">SignUpComponent</text>
</g>
<!-- SignUpComponent&#45;&gt;AppModule -->
<g id="edge8" class="edge">
<title>SignUpComponent&#45;&gt;AppModule</title>
<path fill="none" stroke="black" d="M370,-122.27C370,-140.56 370,-166 370,-166 370,-166 685.26,-166 685.26,-166"/>
<polygon fill="black" stroke="black" points="685.26,-169.5 695.26,-166 685.26,-162.5 685.26,-169.5"/>
</g>
<!-- TableComponent -->
<g id="node9" class="node">
<title>TableComponent</title>
<polygon fill="#ffffb3" stroke="black" points="289.7,-122 176.3,-122 176.3,-86 289.7,-86 289.7,-122"/>
<text text-anchor="middle" x="233" y="-99.8" font-family="Times,serif" font-size="14.00">TableComponent</text>
</g>
<!-- TableComponent&#45;&gt;AppModule -->
<g id="edge9" class="edge">
<title>TableComponent&#45;&gt;AppModule</title>
<path fill="none" stroke="black" d="M233,-122.13C233,-142.57 233,-173 233,-173 233,-173 685.33,-173 685.33,-173"/>
<polygon fill="black" stroke="black" points="685.33,-176.5 695.33,-173 685.33,-169.5 685.33,-176.5"/>
</g>
<!-- AppComponent  -->
<g id="node12" class="node">
<title>AppComponent </title>
<polygon fill="#80b1d3" stroke="black" points="791.44,-252 682.56,-252 682.56,-216 791.44,-216 791.44,-252"/>
<text text-anchor="middle" x="737" y="-229.8" font-family="Times,serif" font-size="14.00">AppComponent </text>
</g>
<!-- AppModule&#45;&gt;AppComponent  -->
<g id="edge11" class="edge">
<title>AppModule&#45;&gt;AppComponent </title>
<path fill="none" stroke="black" stroke-dasharray="1,5" d="M737,-187.11C737,-187.11 737,-205.99 737,-205.99"/>
<polygon fill="black" stroke="black" points="733.5,-205.99 737,-215.99 740.5,-205.99 733.5,-205.99"/>
</g>
<!-- AppRoutingModule -->
<g id="node11" class="node">
<title>AppRoutingModule</title>
<polygon fill="#8dd3c7" stroke="black" points="152.27,-122 149.27,-126 128.27,-126 125.27,-122 23.73,-122 23.73,-86 152.27,-86 152.27,-122"/>
<text text-anchor="middle" x="88" y="-99.8" font-family="Times,serif" font-size="14.00">AppRoutingModule</text>
</g>
<!-- AppRoutingModule&#45;&gt;AppModule -->
<g id="edge10" class="edge">
<title>AppRoutingModule&#45;&gt;AppModule</title>
<path fill="none" stroke="black" d="M88,-122.01C88,-144.49 88,-180 88,-180 88,-180 684.92,-180 684.92,-180"/>
<polygon fill="black" stroke="black" points="684.92,-183.5 694.92,-180 684.92,-176.5 684.92,-183.5"/>
</g>
</g>
</svg>
